<!--?xml version="1.0" encoing="utf-8"?-->
<!-- Generator: Adobe Illustrator 15.1.0, SVG Export Plug-In . SVG Version: 6.00 Build 0)  -->

<svg version="1.1" id="_x32_" xmlns="http://www.w3.org/2000/svg" xmlns:xlink="http://www.w3.org/1999/xlink" x="0px" y="0px" width="512px" height="512px" viewBox="0 0 512 512" style="width: 256px; height: 256px; opacity: 1;" xml:space="preserve">
<style type="text/css">

	.st0{fill:#4B4B4B;}

</style>
<g>
	<path class="st0" d="M415.957,13.891c-21.891-17.438-56.984-19-87.359-1.594c-30.375,17.391-46.766,48.438-42.813,76.141
		c21.875,17.453,56.984,19.016,87.359,1.609C403.519,72.625,419.91,41.609,415.957,13.891z" style="fill: rgb(0, 0, 0);"></path>
	<path class="st0" d="M439.316,178.406c-57.844-67.484-121.829-40.469-161.235-28.547V95.313c0-11.688-9.484-21.156-21.172-21.156
		s-21.156,9.469-21.156,21.156v55.078c-39.219-11.578-104.313-40.531-163.078,28.016C0.55,262.563,51.644,512,255.988,512
		C460.363,512,511.457,262.563,439.316,178.406z" style="fill: rgb(0, 0, 0);"></path>
</g>
</svg>
